<?xml version="1.0" standalone="no"?>
<!DOCTYPE svg PUBLIC "-//W3C//DTD SVG 20010904//EN"
 "http://www.w3.org/TR/2001/REC-SVG-20010904/DTD/svg10.dtd">
<svg version="1.0" xmlns="http://www.w3.org/2000/svg"
 width="765.000000pt" height="765.000000pt" viewBox="0 0 765.000000 765.000000"
 preserveAspectRatio="xMidYMid meet">
<metadata>
Created by potrace 1.14, written by Peter Selinger 2001-2017
</metadata>
<g transform="translate(0.000000,765.000000) scale(0.100000,-0.100000)"
fill="#000000" stroke="none">
<path d="M3837 7189 c-9 -6 -22 -7 -28 -4 -6 4 -20 -1 -31 -12 -12 -10 -18
-12 -14 -5 4 6 5 12 2 12 -2 0 -13 3 -23 6 -13 4 -15 3 -4 -4 9 -7 10 -12 2
-16 -6 -4 -14 0 -17 9 -5 13 -9 14 -15 4 -4 -7 -17 -13 -28 -14 -11 -1 -18 2
-15 7 3 4 0 8 -5 8 -6 0 -11 -4 -11 -8 0 -4 -11 -8 -24 -8 -14 0 -22 4 -20 8
3 4 1 8 -5 8 -5 0 -15 -8 -20 -17 -6 -10 -11 -12 -11 -5 0 6 -6 11 -12 10 -7
-2 -12 4 -10 12 3 11 -1 10 -16 -3 -15 -14 -21 -15 -25 -5 -4 9 -6 9 -6 1 -1
-7 -8 -10 -18 -6 -11 4 -14 3 -9 -5 5 -8 2 -10 -8 -6 -9 3 -13 11 -9 18 4 6 0
6 -9 -2 -9 -7 -42 -14 -74 -15 -33 -1 -65 -6 -71 -10 -8 -5 -13 -3 -13 4 0 10
-3 10 -12 1 -7 -7 -17 -8 -30 -1 -10 5 -18 6 -18 1 0 -5 -7 -9 -15 -9 -8 0
-15 5 -15 11 0 6 -4 5 -9 -3 -5 -7 -20 -13 -35 -13 -16 0 -23 -5 -19 -12 3 -6
3 -8 -2 -4 -4 4 -23 1 -42 -7 -19 -8 -39 -12 -44 -9 -5 3 -9 0 -9 -6 0 -6 -4
-8 -10 -5 -5 3 -10 2 -10 -3 0 -5 -7 -9 -15 -9 -11 0 -12 4 -4 16 7 9 0 4 -14
-11 -26 -28 -44 -38 -32 -17 4 6 -2 5 -14 -3 -12 -7 -21 -17 -21 -23 0 -5 -5
-3 -10 5 -8 13 -10 12 -10 -3 0 -10 -4 -15 -10 -12 -5 3 -10 -1 -10 -11 0 -11
-6 -15 -20 -11 -11 3 -18 1 -15 -3 6 -10 -54 -42 -66 -34 -5 3 -9 -2 -9 -10 0
-9 -11 -18 -25 -22 -14 -3 -25 -10 -25 -16 0 -5 -4 -6 -10 -3 -5 3 -10 1 -10
-4 0 -6 -4 -11 -9 -11 -5 0 -33 -24 -63 -52 -77 -76 -94 -88 -106 -76 -7 7
-10 4 -9 -8 1 -12 -4 -19 -15 -18 -11 1 -15 -4 -11 -15 4 -9 3 -13 -1 -9 -4 3
-29 -16 -56 -44 -31 -32 -53 -47 -61 -43 -7 5 -10 4 -5 -3 3 -6 -3 -13 -13
-17 -14 -4 -18 -11 -14 -23 6 -15 5 -15 -10 -3 -15 12 -17 12 -11 -4 5 -13 4
-16 -4 -11 -8 5 -10 2 -6 -8 4 -9 -1 -18 -10 -22 -9 -3 -16 -14 -16 -23 0 -14
-2 -14 -10 -1 -8 13 -10 13 -10 -2 0 -9 -10 -25 -23 -35 -12 -10 -30 -29 -40
-43 -9 -13 -17 -20 -17 -15 0 12 -35 -49 -56 -97 -9 -21 -20 -35 -25 -32 -5 3
-6 -2 -3 -10 3 -9 2 -16 -3 -16 -5 0 -17 -20 -27 -45 -11 -26 -23 -42 -30 -38
-6 3 -8 3 -4 -1 10 -12 -13 -67 -25 -59 -6 3 -7 1 -3 -6 4 -6 2 -18 -4 -26 -7
-8 -9 -15 -6 -15 4 0 0 -7 -8 -16 -9 -8 -16 -22 -16 -29 0 -8 -9 -30 -20 -50
-11 -20 -20 -42 -20 -51 0 -9 -5 -12 -12 -8 -8 5 -9 2 -4 -11 4 -11 0 -25 -10
-36 -9 -10 -13 -22 -10 -28 4 -5 -2 -14 -11 -20 -11 -6 -13 -11 -5 -11 9 0 10
-5 3 -19 -6 -10 -7 -21 -4 -25 3 -3 1 -6 -5 -6 -6 0 -9 -7 -6 -15 4 -8 2 -15
-2 -15 -5 0 -10 -16 -11 -37 -1 -20 -8 -40 -15 -44 -9 -6 -9 -9 -1 -9 9 0 9
-9 2 -32 -6 -18 -12 -42 -14 -53 -1 -11 -3 -20 -5 -20 -3 0 -10 -54 -11 -77 0
-10 -5 -18 -11 -18 -6 0 -5 -7 3 -17 12 -15 12 -16 -6 -9 -16 6 -18 5 -7 -5
16 -17 16 -32 0 -23 -10 5 -10 4 -1 -6 10 -11 9 -16 -5 -27 -9 -8 -12 -12 -6
-9 6 3 10 -4 8 -17 -1 -12 -3 -22 -4 -22 -1 0 -3 -11 -6 -25 -7 -41 -13 -52
-26 -44 -10 6 -11 4 0 -7 18 -20 15 -33 -5 -18 -15 11 -14 10 1 -9 18 -20 15
-27 -9 -22 -5 1 -5 -4 2 -10 9 -10 8 -23 -3 -59 -8 -25 -17 -53 -19 -61 -2 -8
-4 -16 -5 -17 -3 -3 -4 -8 -14 -48 -4 -16 -11 -39 -15 -50 -7 -16 -52 -158
-56 -175 -1 -3 -7 -25 -15 -50 -7 -25 -14 -54 -16 -65 -5 -33 -34 -159 -39
-172 -2 -7 1 -13 8 -13 8 0 9 -2 1 -8 -6 -4 -11 -23 -10 -44 0 -20 -2 -34 -6
-32 -8 5 -3 -121 6 -135 4 -6 2 -11 -4 -11 -7 0 -5 -7 4 -16 19 -18 21 -28 5
-18 -7 4 -10 1 -7 -7 3 -8 1 -22 -4 -33 -7 -13 -7 -16 1 -12 10 7 7 -57 -5
-75 -3 -5 -1 -9 3 -9 5 0 8 -17 7 -37 0 -21 3 -50 7 -65 5 -17 3 -29 -4 -32
-7 -2 -4 -5 5 -5 12 -1 16 -8 13 -22 -3 -12 -2 -19 2 -16 7 8 33 -18 33 -33 0
-8 8 -10 21 -7 17 5 18 3 7 -11 -7 -9 -8 -13 -3 -10 17 11 35 -6 37 -35 1 -15
6 -27 9 -27 4 0 6 -15 5 -32 -2 -34 -34 -98 -49 -98 -4 0 -5 -5 -2 -10 3 -6 0
-13 -8 -16 -9 -3 -13 -13 -9 -26 3 -13 1 -19 -5 -15 -5 3 -9 -3 -8 -14 1 -11
8 -25 16 -30 8 -5 10 -9 4 -9 -5 0 -2 -5 8 -11 9 -5 17 -17 17 -24 0 -8 5 -15
10 -15 6 0 10 -7 10 -15 0 -8 4 -15 10 -15 5 0 9 -6 7 -12 -1 -7 3 -12 10 -11
7 2 10 -4 7 -12 -3 -8 5 -25 19 -39 14 -14 22 -27 19 -30 -3 -3 -1 -6 5 -6 6
0 16 -13 23 -30 7 -16 20 -32 29 -35 27 -8 161 -141 161 -159 0 -10 8 -16 22
-16 12 0 19 -3 15 -6 -8 -8 18 -34 33 -34 6 0 8 -5 5 -10 -3 -5 1 -10 10 -10
10 0 13 5 9 13 -4 6 -3 8 1 4 15 -13 14 -35 -1 -41 -7 -3 -11 -12 -8 -21 4
-10 0 -15 -10 -15 -9 0 -16 -7 -16 -16 0 -9 -5 -12 -12 -8 -7 5 -9 2 -5 -8 7
-19 -11 -38 -28 -32 -7 3 -16 0 -21 -7 -5 -8 -3 -10 7 -5 8 4 3 -1 -10 -12
-13 -10 -21 -24 -17 -31 5 -7 1 -9 -10 -4 -14 5 -16 3 -11 -11 4 -10 3 -15 -3
-11 -6 3 -10 1 -10 -5 0 -6 -4 -9 -9 -5 -9 5 -27 -32 -23 -47 1 -3 -6 -12 -16
-20 -15 -12 -16 -11 -3 5 7 9 9 17 3 17 -5 0 -15 -13 -22 -29 -6 -16 -18 -32
-27 -35 -8 -3 -11 -10 -8 -16 4 -6 11 -7 17 -4 7 4 8 2 4 -4 -4 -6 -13 -9 -20
-6 -9 3 -17 -3 -21 -15 -3 -12 -11 -21 -17 -21 -6 0 -5 -7 3 -17 10 -12 10
-15 1 -9 -13 8 -45 -17 -35 -27 3 -3 -2 -13 -11 -22 -9 -9 -13 -21 -10 -27 4
-6 3 -8 -3 -5 -15 10 -36 -42 -23 -58 8 -9 4 -12 -17 -9 -24 2 -26 1 -12 -9
14 -10 14 -14 2 -25 -15 -15 -8 -36 9 -26 7 4 8 2 4 -4 -4 -6 -13 -9 -21 -5
-10 3 -15 -1 -15 -12 0 -9 4 -14 8 -11 4 2 8 -5 8 -16 0 -19 -1 -19 -20 4 -16
19 -18 20 -11 3 4 -11 7 -30 6 -42 0 -17 3 -21 17 -16 14 5 13 3 -3 -11 -15
-14 -16 -16 -3 -13 17 6 19 -16 3 -30 -4 -4 -5 -2 0 6 6 10 2 12 -16 6 -13 -3
-19 -3 -14 2 15 12 16 30 1 30 -7 0 -12 -10 -11 -21 1 -12 -2 -26 -6 -32 -5
-7 -3 -11 6 -11 8 0 12 4 9 9 -3 4 0 8 5 8 6 0 11 -6 11 -14 0 -9 8 -13 23
-10 l22 5 -22 -10 c-13 -6 -23 -15 -23 -21 0 -6 -5 -8 -12 -3 -7 4 -5 -6 6
-21 16 -25 16 -28 2 -23 -15 6 -15 4 1 -18 10 -15 25 -23 35 -21 14 3 15 1 5
-15 -6 -10 -15 -19 -20 -19 -4 0 -5 5 -1 12 4 7 3 8 -5 4 -14 -9 -5 -26 15
-26 8 0 12 -5 9 -10 -4 -6 -11 -8 -16 -5 -5 3 -6 -1 -3 -9 3 -9 10 -16 16 -16
5 0 6 5 3 10 -3 6 -1 10 4 10 6 0 11 -4 11 -10 0 -5 5 -10 10 -10 6 0 4 10 -4
23 -13 19 -13 25 0 47 15 25 15 25 8 1 -5 -18 -3 -22 7 -15 12 6 12 5 0 -9
-12 -15 -9 -21 19 -47 18 -16 29 -30 25 -30 -5 0 0 -9 10 -20 10 -11 22 -17
28 -13 5 3 7 1 3 -5 -9 -15 48 -54 62 -42 9 7 9 7 2 -2 -15 -19 -12 -32 5 -18
8 7 15 20 16 29 0 11 2 12 6 3 3 -7 -1 -20 -8 -28 -11 -13 -10 -15 7 -12 10 1
25 10 32 18 11 13 12 12 3 -6 -14 -30 0 -40 16 -12 l14 23 -7 -24 c-4 -15 -2
-21 4 -17 6 3 13 2 17 -3 3 -6 -3 -8 -15 -6 -11 2 -20 0 -20 -6 0 -8 21 -13
46 -10 6 1 16 -4 22 -11 10 -13 12 -18 12 -38 0 -5 9 -10 20 -10 11 0 20 -4
20 -9 0 -5 -9 -7 -20 -4 -12 3 -20 0 -20 -6 0 -7 4 -10 10 -6 5 3 18 0 28 -6
23 -14 57 -5 46 12 -5 8 -3 9 5 4 9 -5 10 -10 2 -18 -15 -15 -14 -30 3 -24 7
3 26 -3 42 -14 35 -23 24 -25 -14 -3 l-27 16 25 -21 c14 -12 33 -19 42 -17 12
3 15 -2 13 -15 -2 -10 1 -22 7 -25 7 -4 8 -2 4 4 -4 7 -3 12 3 12 5 0 13 -10
16 -21 5 -16 9 -18 15 -9 6 9 10 6 15 -9 7 -22 7 -22 27 -4 20 18 21 18 10 -3
-9 -18 -8 -25 5 -35 12 -10 15 -10 9 -2 -4 7 -2 13 3 13 6 0 11 -6 11 -12 0
-9 4 -8 10 2 8 13 10 12 10 -3 0 -13 6 -16 24 -13 21 4 24 1 20 -20 -2 -13 0
-24 6 -24 6 0 8 5 5 10 -10 17 6 11 23 -8 10 -10 13 -12 8 -5 -6 10 -4 12 8 7
9 -3 16 -11 16 -16 0 -6 9 -8 20 -5 27 7 25 -1 -2 -13 -23 -9 -23 -9 3 -9 14
-1 29 2 35 7 5 4 8 5 6 3 -1 -2 4 -11 12 -20 8 -9 16 -20 17 -26 2 -5 9 -9 16
-7 7 2 12 -3 11 -10 -2 -8 4 -12 16 -10 12 2 16 -1 11 -10 -6 -10 -5 -10 5 -1
15 14 40 6 40 -13 0 -8 5 -14 11 -14 5 0 8 -4 5 -9 -3 -4 6 -7 19 -5 14 1 25
-2 25 -7 0 -5 -5 -9 -12 -9 -6 0 -8 -3 -5 -6 4 -4 13 -2 20 5 11 9 20 6 41
-10 14 -11 24 -25 21 -30 -4 -5 -1 -9 4 -9 6 0 11 6 11 13 1 6 6 2 13 -11 10
-18 15 -20 26 -10 7 7 12 9 11 3 -2 -5 -2 -17 0 -25 1 -11 4 -9 10 5 8 18 9
19 9 1 1 -12 6 -16 17 -12 8 3 13 2 10 -3 -5 -8 12 -20 24 -17 6 1 27 -16 62
-49 11 -11 17 -13 13 -5 -8 13 -7 13 9 1 15 -13 19 -13 27 0 8 10 8 7 4 -10
-7 -21 -5 -23 19 -19 23 5 24 3 14 -10 -10 -13 -11 -14 0 -8 7 4 15 1 18 -8 3
-9 10 -13 15 -10 5 3 17 -2 26 -11 13 -13 18 -14 24 -3 7 10 9 9 9 -5 0 -10 5
-15 10 -12 6 3 10 1 10 -4 0 -6 6 -11 13 -11 7 0 23 -9 34 -19 12 -11 24 -17
27 -14 3 4 6 1 6 -6 0 -7 4 -10 9 -7 5 3 12 -1 15 -10 4 -9 13 -14 22 -10 8 3
12 2 9 -4 -6 -9 7 -14 27 -11 4 0 4 -7 1 -16 -4 -10 -2 -14 4 -10 6 4 21 -2
33 -13 12 -11 27 -17 31 -14 5 3 9 0 9 -6 0 -6 14 -16 30 -21 17 -6 30 -15 30
-21 0 -5 4 -6 10 -3 5 3 10 1 10 -4 0 -6 5 -11 11 -11 5 0 7 6 3 13 -4 6 2 4
13 -6 11 -9 23 -14 26 -10 4 3 7 -1 7 -10 0 -9 5 -17 11 -17 5 0 7 6 3 13 -4
6 2 4 13 -6 11 -10 34 -19 51 -20 16 -1 28 -5 25 -9 -4 -7 12 -12 30 -9 4 0 7
-4 7 -10 0 -6 6 -9 14 -6 8 3 17 3 21 -1 4 -4 11 -8 16 -8 5 -1 10 -2 12 -3 9
-8 67 -9 67 -2 0 5 -7 8 -16 7 -9 0 -19 6 -21 14 -4 13 -3 13 6 0 8 -11 13
-12 22 -3 14 14 49 0 49 -20 0 -8 -4 -7 -10 3 -5 8 -12 11 -17 7 -4 -5 -1 -12
6 -17 17 -10 63 9 54 23 -3 5 -9 3 -14 -4 -5 -8 -9 -9 -9 -3 0 18 13 24 27 13
16 -14 18 2 2 18 -8 8 -7 13 2 18 7 5 10 4 6 -2 -4 -6 1 -17 10 -24 15 -12 16
-12 10 4 -4 10 -3 16 2 12 6 -3 14 3 20 12 5 10 13 14 18 10 4 -5 0 -13 -10
-18 -17 -10 -15 -29 4 -29 6 0 7 5 3 12 -4 7 -3 8 4 4 7 -4 12 -3 12 2 0 18
28 21 42 4 11 -13 11 -14 -1 -7 -10 6 -12 4 -6 -6 8 -12 6 -12 -8 0 -9 7 -17
9 -17 4 0 -6 10 -15 23 -21 20 -10 20 -11 2 -9 -11 1 -23 6 -26 11 -4 4 -17 3
-29 -4 -15 -8 -20 -8 -16 -1 11 18 -9 13 -33 -8 -13 -12 -18 -22 -11 -26 5 -3
10 -2 10 4 0 5 11 8 25 7 13 -2 22 1 19 6 -8 12 29 6 38 -7 5 -6 8 -5 8 2 0 7
6 10 14 7 8 -3 17 0 21 5 3 6 11 8 17 5 7 -4 8 -2 4 5 -4 6 -12 9 -17 6 -5 -4
-9 -2 -9 4 0 21 19 20 36 -1 11 -15 14 -17 11 -5 -4 9 -2 17 3 17 6 0 10 5 10
11 0 8 -4 8 -14 0 -8 -7 -17 -8 -20 -3 -3 6 3 12 14 15 11 3 19 9 18 14 -2 4
2 9 7 10 6 0 9 -3 8 -8 -2 -5 6 -9 17 -9 13 0 18 -5 14 -15 -4 -8 -1 -15 6
-15 6 0 9 4 5 9 -3 5 5 17 17 25 12 9 18 16 12 16 -5 0 -16 -6 -23 -12 -10
-11 -11 -10 -6 4 4 11 16 17 30 16 13 -1 22 -5 19 -9 -2 -4 2 -9 10 -12 9 -4
12 0 9 12 -2 10 4 24 14 32 16 13 17 13 4 -3 -8 -11 -9 -18 -3 -18 6 0 14 5
17 11 4 6 13 8 21 5 14 -6 20 9 7 17 -5 2 -3 2 4 1 20 -5 25 14 6 20 -13 3
-13 4 3 3 11 -1 29 5 39 13 14 11 17 11 11 1 -7 -10 -3 -12 15 -7 13 3 18 3
12 0 -7 -3 -13 -10 -13 -15 0 -6 4 -8 9 -5 5 4 12 1 14 -4 3 -6 4 -5 3 2 -5
20 13 48 30 48 8 0 12 -5 9 -10 -4 -6 -10 -8 -14 -6 -4 3 -8 -1 -8 -9 0 -13 3
-13 18 1 11 9 23 13 31 8 9 -5 8 -2 -2 11 -14 17 -13 18 2 12 10 -3 17 -3 17
1 -3 20 2 25 12 12 9 -13 10 -12 5 3 -5 16 5 22 28 18 4 -1 14 3 22 10 15 12
10 29 -9 29 -8 0 -8 -3 1 -9 11 -7 10 -9 -3 -14 -9 -4 -13 -3 -10 2 3 5 1 12
-5 16 -23 14 3 24 29 11 29 -15 39 -10 66 34 8 13 6 13 -8 1 -20 -16 -23 -6
-5 13 11 11 15 11 26 -3 12 -14 13 -13 9 7 -5 19 -3 21 9 11 12 -10 13 -9 7 7
-6 17 -5 17 10 5 15 -12 17 -12 11 4 -6 14 -4 16 7 10 12 -7 12 -6 1 7 -11 14
-10 16 7 11 22 -6 30 13 9 20 -7 2 -3 2 10 0 15 -2 22 2 22 12 0 8 5 16 10 16
6 1 16 2 23 3 6 1 11 7 10 14 -2 7 3 12 9 12 7 0 31 20 54 45 23 24 45 41 49
37 5 -4 5 -2 2 5 -4 6 -1 14 5 16 10 4 9 8 -2 17 -13 10 -12 11 4 6 12 -4 26
1 38 13 24 27 23 34 -4 25 -13 -3 -20 -3 -15 1 6 7 17 10 60 14 5 1 5 6 2 11
-3 6 2 10 11 10 10 0 15 3 11 6 -3 3 10 20 29 36 19 17 33 37 30 43 -3 9 3 11
17 8 14 -3 18 -1 10 4 -8 6 -7 13 4 28 13 17 15 17 9 2 -3 -11 -2 -16 4 -12 6
3 10 13 10 21 0 10 5 12 13 8 9 -6 9 -4 -1 8 -11 13 -10 16 5 14 10 0 17 5 16
12 -3 11 10 16 30 13 4 -1 3 8 -3 19 -9 16 -8 18 5 14 11 -4 15 1 16 17 0 13
3 18 6 11 2 -6 9 -9 14 -6 6 3 5 12 -3 22 -7 9 -8 13 -2 9 6 -3 20 1 30 9 10
9 14 13 7 10 -6 -4 -15 -1 -19 5 -4 8 -3 9 4 5 7 -4 12 -2 12 3 0 6 6 10 13 8
6 -1 11 6 11 15 -1 10 1 16 5 14 4 -3 16 7 26 20 11 14 29 35 40 47 12 12 21
26 22 32 1 5 10 12 20 16 10 4 15 8 12 8 -4 1 25 34 63 74 38 39 74 71 80 69
5 -1 7 2 3 8 -3 5 0 10 7 10 8 0 6 5 -5 11 -12 7 -16 17 -11 31 4 15 3 18 -6
13 -9 -5 -11 -4 -6 4 11 17 28 2 21 -18 -3 -11 0 -18 9 -18 9 0 13 8 11 19 -3
15 0 18 18 14 12 -3 16 -3 10 0 -7 3 -13 12 -13 19 0 14 -27 28 -40 20 -5 -3
-11 -1 -14 4 -4 6 7 8 24 6 17 -2 28 0 25 4 -2 5 2 14 10 21 8 7 12 17 9 22
-3 5 -12 1 -21 -9 -13 -17 -13 -16 -3 4 6 13 16 22 23 20 7 -1 11 6 9 18 -2
11 -1 17 3 13 15 -14 11 -44 -8 -66 -15 -16 -17 -22 -6 -22 12 0 11 -2 -1 -10
-11 -7 -11 -10 -2 -10 7 0 10 -5 6 -12 -4 -7 -3 -8 5 -4 6 4 9 11 6 16 -3 4 1
11 7 13 10 4 10 6 1 6 -7 1 -10 8 -7 16 5 13 9 13 23 3 14 -12 15 -11 2 4 -11
15 -11 18 0 18 11 0 11 2 -1 10 -13 8 -13 10 2 10 9 0 20 5 24 11 4 7 0 9 -14
5 -14 -5 -19 -3 -18 6 6 29 18 46 30 42 7 -3 21 4 31 16 10 11 15 20 10 20 -4
0 -14 -8 -21 -17 -9 -12 -13 -14 -14 -5 0 8 -5 10 -12 6 -10 -6 -9 -3 0 8 10
13 11 22 3 37 -14 26 5 39 26 18 10 -10 12 -17 4 -22 -6 -3 -10 -1 -9 6 2 6
-3 14 -11 16 -10 4 -11 1 -3 -13 14 -26 39 -26 38 0 -1 11 -7 25 -14 29 -9 6
-9 13 -2 27 17 32 11 36 -13 10 -12 -14 -19 -21 -14 -16 11 15 8 28 -5 20 -7
-4 -8 -3 -4 5 4 6 11 9 15 6 15 -9 41 29 31 45 -13 20 -12 30 1 30 5 0 7 -5 3
-12 -5 -7 -3 -8 6 -3 9 6 12 4 8 -7 -4 -8 -1 -15 7 -15 7 0 10 8 7 19 -2 10
-8 18 -11 18 -4 0 -8 7 -8 15 0 8 7 15 16 15 14 0 14 2 1 10 -8 5 -11 10 -6
10 5 0 3 7 -4 15 -11 13 -10 18 3 28 15 11 14 14 -11 36 -15 13 -28 22 -29 20
-1 -2 -5 0 -10 5 -4 5 -3 6 4 2 6 -3 14 -2 18 4 3 5 -1 10 -9 10 -9 0 -16 4
-16 9 0 6 -15 25 -32 42 -20 20 -23 25 -8 14 14 -11 5 2 -20 28 -24 26 -50 47
-58 47 -7 0 -10 -5 -6 -12 4 -7 3 -8 -4 -4 -6 4 -9 13 -5 21 3 9 -1 15 -11 15
-9 0 -16 5 -16 11 0 6 -10 8 -22 5 -13 -3 -17 -3 -10 0 6 3 12 10 12 15 0 6
-4 8 -9 4 -6 -3 -14 3 -20 12 -6 10 -11 12 -11 6 0 -7 -5 -13 -11 -13 -5 0 -8
4 -5 8 2 4 1 14 -4 22 -8 13 -11 13 -22 1 -9 -10 -10 -12 -1 -7 9 5 11 2 6
-10 -5 -15 -7 -15 -15 0 -5 9 -6 22 -2 29 5 7 1 7 -10 -2 -9 -8 -16 -10 -15
-5 3 17 -1 34 -8 33 -13 -2 -53 13 -54 20 0 3 -2 14 -4 24 -2 9 1 17 6 17 6 0
8 4 4 9 -3 6 2 14 11 19 11 6 15 16 11 26 -4 9 -3 15 1 12 5 -3 16 4 25 15 9
10 14 19 10 19 -3 0 3 8 14 17 11 10 18 24 15 32 -3 9 0 11 8 6 10 -6 12 -3 8
13 -4 12 0 23 7 26 7 2 16 19 20 36 4 17 13 34 21 37 8 3 12 8 9 12 -2 4 21
40 51 79 29 39 54 79 54 87 0 9 4 13 10 10 6 -3 7 1 4 9 -4 10 -1 16 7 16 10
0 10 3 3 8 -13 8 -14 42 -2 42 5 0 6 5 3 10 -3 6 -11 10 -16 10 -6 0 -7 -4 -4
-10 3 -5 1 -10 -5 -10 -6 0 -9 8 -6 18 6 17 -6 44 -18 43 -20 -3 -26 0 -20 11
5 8 2 9 -9 5 -10 -3 -17 -2 -17 4 0 6 -4 8 -9 5 -5 -3 -14 1 -21 9 -10 12 -8
13 10 10 17 -3 20 -1 11 9 -9 11 -8 18 3 29 8 8 12 18 8 22 -4 5 2 5 12 1 16
-5 17 -4 6 9 -10 12 -10 15 4 15 10 0 14 5 11 10 -3 6 -1 10 5 10 6 0 8 6 4
13 -4 6 -4 9 1 5 5 -5 13 2 20 15 6 12 16 21 22 20 6 -1 10 9 8 22 -2 22 0 23
13 13 13 -10 14 -10 8 0 -4 7 -2 12 4 12 6 0 9 4 6 8 -3 5 4 16 15 26 12 9 18
24 15 31 -6 15 14 16 25 2 3 -5 9 -1 12 8 4 9 3 13 -3 10 -6 -3 -10 1 -10 10
0 9 4 14 8 11 4 -2 14 0 22 6 12 8 12 9 -2 4 -10 -3 -20 -1 -23 4 -4 6 0 10 7
10 9 0 13 10 12 30 -1 17 2 33 7 36 5 3 6 10 3 16 -5 7 -2 8 5 4 17 -11 43 25
29 41 -5 7 -6 18 -2 24 7 12 13 49 17 97 0 12 5 22 9 22 4 0 8 5 8 11 0 5 -5
7 -12 3 -8 -5 -9 -2 -3 12 5 10 9 49 9 85 1 49 4 65 14 62 6 -3 12 0 12 6 0 6
-6 11 -13 11 -7 0 -13 9 -13 20 0 15 5 19 21 14 16 -4 17 -3 5 5 -8 6 -11 11
-6 11 5 0 1 8 -8 19 -16 17 -16 20 -1 35 9 9 13 16 8 16 -5 0 -14 -5 -20 -11
-8 -8 -11 -4 -10 14 1 14 7 23 12 19 6 -3 7 -2 3 3 -4 4 -2 15 5 23 10 13 9
14 -2 7 -11 -6 -13 -4 -7 10 6 16 4 16 -11 4 -9 -8 -14 -9 -10 -2 4 6 1 14 -5
16 -7 3 -4 6 7 7 19 1 19 1 2 11 -15 9 -16 13 -5 27 7 9 8 13 2 9 -7 -4 -14 0
-18 8 -3 8 -1 15 5 15 6 0 7 5 4 10 -4 6 -12 7 -18 3 -7 -4 -6 0 2 10 11 14
11 17 0 17 -11 0 -11 2 1 10 13 8 9 13 -10 12 -3 0 -4 16 -4 36 1 20 -3 42 -8
49 -5 6 -10 28 -11 47 -2 30 -5 35 -22 31 -11 -3 -14 -2 -7 1 6 3 12 12 12 20
0 8 -6 14 -12 14 -8 0 -9 3 -3 8 13 9 18 32 7 32 -5 0 -8 31 -8 69 1 55 -2 67
-13 63 -10 -4 -12 -2 -5 9 14 22 11 73 -6 87 -8 8 -10 11 -4 8 13 -6 28 35 16
44 -11 8 -14 40 -4 40 5 0 9 7 9 15 0 8 -5 15 -11 15 -7 0 -7 3 1 11 10 10 0
56 -21 88 -7 11 -6 12 5 6 12 -8 12 -6 0 8 -7 9 -10 17 -6 17 4 0 1 7 -6 17
-8 9 -13 19 -12 22 5 11 -9 71 -18 77 -5 3 -9 14 -9 25 0 10 -4 19 -8 19 -4 0
-9 10 -9 22 -1 13 -7 24 -13 26 -7 3 -7 9 2 20 10 12 10 14 1 8 -9 -5 -13 0
-13 13 0 12 -5 21 -10 21 -6 0 -9 3 -9 8 3 20 -2 43 -9 38 -4 -2 -9 5 -9 16
-1 12 -6 24 -10 27 -4 3 -9 14 -11 24 -3 17 -13 37 -54 108 -7 12 -21 32 -30
43 -10 11 -18 24 -18 28 0 5 -4 7 -8 4 -4 -2 -9 5 -9 17 -1 12 -7 23 -13 25
-5 2 -10 10 -10 18 0 8 -3 14 -8 14 -7 0 -38 62 -33 68 1 2 -7 12 -18 21 -12
10 -21 23 -21 29 0 6 -10 18 -22 26 -15 11 -18 16 -8 16 9 1 6 6 -8 13 -12 7
-19 16 -16 20 4 4 -1 7 -12 7 -16 0 -17 2 -4 10 13 9 7 14 -12 11 -5 0 -7 2
-6 7 3 15 -15 42 -25 35 -5 -3 -7 -1 -3 5 3 6 -1 17 -9 25 -8 9 -15 20 -15 26
0 10 -13 15 -31 13 -4 -1 -4 8 -1 20 3 13 1 19 -5 15 -6 -4 -17 1 -24 10 -12
14 -12 16 1 9 9 -4 8 -2 -2 7 -10 8 -14 18 -10 22 4 5 -1 5 -11 2 -11 -4 -16
-3 -12 3 3 6 -1 13 -9 16 -9 3 -16 12 -16 20 0 8 -6 13 -12 11 -7 -1 -12 3
-11 10 2 6 -6 15 -17 18 -11 4 -20 12 -20 18 0 7 -15 23 -32 37 -18 14 -39 33
-47 43 -9 9 -21 17 -27 17 -7 0 -14 7 -18 15 -3 8 -12 15 -20 15 -8 0 -16 3
-18 8 -4 8 -48 35 -98 60 -19 9 -38 21 -41 25 -3 5 -8 7 -11 5 -5 -3 -110 43
-118 52 -8 9 -74 35 -82 32 -5 -1 -8 2 -8 7 0 5 -16 15 -35 21 -19 6 -35 16
-35 21 0 6 -4 8 -8 5 -4 -2 -28 5 -52 16 -25 12 -47 22 -50 23 -74 22 -97 30
-106 37 -7 5 -25 10 -42 11 -16 1 -28 5 -25 10 2 4 -2 7 -10 7 -8 0 -27 6 -43
14 -19 11 -33 12 -45 5 -14 -7 -17 -6 -14 4 7 16 -23 19 -48 6z m33 -14 c0 -8
-2 -15 -4 -15 -2 0 -6 7 -10 15 -3 8 -1 15 4 15 6 0 10 -7 10 -15z m1827
-2531 c-3 -3 -12 -4 -19 -1 -8 3 -5 6 6 6 11 1 17 -2 13 -5z m18 -112 c-3 -3
-11 0 -18 7 -9 10 -8 11 6 5 10 -3 15 -9 12 -12z m-35 -396 c0 -3 -4 -8 -10
-11 -5 -3 -10 -1 -10 4 0 6 5 11 10 11 6 0 10 -2 10 -4z m-175 -1306 c10 -11
16 -20 13 -20 -3 0 -13 9 -23 20 -10 11 -16 20 -13 20 3 0 13 -9 23 -20z m69
-138 c3 -5 -1 -9 -9 -9 -8 0 -12 4 -9 9 3 4 7 8 9 8 2 0 6 -4 9 -8z m31 -44
c-4 -18 -3 -29 1 -25 14 13 34 -14 24 -33 -5 -9 -7 -19 -5 -22 3 -3 -1 -5 -8
-5 -7 0 -13 8 -13 18 0 10 4 15 8 13 4 -3 8 2 8 10 0 9 -5 15 -12 14 -8 -2
-13 10 -13 30 -1 17 2 32 7 32 5 0 6 -14 3 -32z m45 8 c0 -2 -7 -6 -15 -10 -8
-3 -15 -1 -15 4 0 6 7 10 15 10 8 0 15 -2 15 -4z m-63 -119 c0 -8 -6 -14 -14
-14 -9 0 -10 4 -2 14 6 7 12 13 14 13 1 0 2 -6 2 -13z m14 -40 c-10 -9 -11 -8
-5 6 3 10 9 15 12 12 3 -3 0 -11 -7 -18z m-40 -140 c-10 -9 -11 -8 -5 6 3 10
9 15 12 12 3 -3 0 -11 -7 -18z m-11 -37 c-6 -11 -13 -20 -16 -20 -2 0 0 9 6
20 6 11 13 20 16 20 2 0 0 -9 -6 -20z m-3910 -130 c-10 -6 -11 -10 -2 -10 6 0
12 -7 12 -15 0 -8 -5 -15 -11 -15 -5 0 -8 4 -4 9 3 5 1 12 -5 16 -13 8 -3 25
13 25 7 0 6 -4 -3 -10z m50 -16 c0 -8 -19 -13 -24 -6 -3 5 1 9 9 9 8 0 15 -2
15 -3z m5 -24 c-3 -5 -14 -10 -23 -9 -14 0 -13 2 3 9 27 11 27 11 20 0z m30
-71 c-4 -5 -12 -9 -18 -8 -9 0 -8 2 1 6 6 2 9 10 6 15 -4 7 -2 8 5 4 6 -4 9
-12 6 -17z m3745 17 c0 -2 -6 -9 -14 -15 -11 -9 -16 -9 -22 0 -4 7 -3 9 4 5 6
-3 13 -2 17 4 6 10 15 14 15 6z m-3663 -63 c-4 -3 -1 -13 6 -22 11 -14 10 -14
-5 -2 -16 12 -16 31 -1 31 4 0 3 -3 0 -7z m3578 -11 c-3 -3 -11 0 -18 7 -9 10
-8 11 6 5 10 -3 15 -9 12 -12z m-3621 -18 c3 -8 2 -12 -4 -9 -6 3 -10 10 -10
16 0 14 7 11 14 -7z m58 -36 c-4 -16 -2 -19 8 -13 9 6 11 4 5 -4 -10 -18 -29
3 -22 23 9 24 16 19 9 -6z m235 -194 c-3 -3 -12 -4 -19 -1 -8 3 -5 6 6 6 11 1
17 -2 13 -5z m2707 -442 c3 -5 -1 -9 -9 -9 -8 0 -12 4 -9 9 3 4 7 8 9 8 2 0 6
-4 9 -8z m-22 -54 c-6 -6 -12 -6 -17 3 -5 8 -4 10 3 5 7 -4 12 0 13 11 0 12 2
13 6 5 3 -8 1 -18 -5 -24z m-207 -128 c-3 -5 -12 -10 -18 -10 -7 0 -6 4 3 10
19 12 23 12 15 0z m-18 -60 c-1 -14 -4 -16 -14 -8 -16 13 -17 22 -1 12 8 -5 9
-2 5 10 -4 9 -3 15 2 11 6 -3 9 -14 8 -25z m-100 -68 c-22 -21 -74 -25 -81 -5
-6 14 -4 14 11 2 15 -12 16 -12 10 6 -7 19 -6 19 7 3 17 -23 30 -23 22 -2 -6
15 -4 15 11 3 15 -12 16 -12 10 3 -4 12 -2 15 9 11 14 -5 14 -7 1 -21z m-111
6 c3 -4 -1 -5 -10 -4 -8 1 -18 5 -22 8 -3 4 1 5 10 4 8 -1 18 -5 22 -8z m-87
-54 c-6 -8 -17 -14 -23 -14 -6 0 -3 5 7 11 9 6 14 15 11 21 -4 7 -2 8 5 4 9
-6 9 -11 0 -22z m111 16 c0 -5 -4 -10 -10 -10 -5 0 -10 5 -10 10 0 6 5 10 10
10 6 0 10 -4 10 -10z m-150 -55 c-7 -9 -15 -13 -19 -10 -3 3 1 10 9 15 21 14
24 12 10 -5z m-33 -17 c-3 -8 -6 -5 -6 6 -1 11 2 17 5 13 3 -3 4 -12 1 -19z
m-277 -2 c0 -3 -4 -8 -10 -11 -5 -3 -10 -1 -10 4 0 6 5 11 10 11 6 0 10 -2 10
-4z m215 -6 c13 -6 15 -9 5 -9 -8 0 -22 4 -30 9 -18 12 -2 12 25 0z m-518 -27
c0 -9 -4 -10 -14 -2 -7 6 -13 12 -13 14 0 1 6 2 13 2 8 0 14 -6 14 -14z m243
13 c0 -2 -7 -7 -16 -10 -8 -3 -12 -2 -9 4 6 10 25 14 25 6z m180 -8 c0 -11
-12 -10 -30 2 -12 7 -10 9 8 7 12 0 22 -5 22 -9z m-325 -17 c3 -5 2 -12 -3
-15 -5 -3 -9 1 -9 9 0 17 3 19 12 6z m349 -5 c-10 -8 -21 -12 -24 -10 -5 6 21
24 34 24 6 0 1 -6 -10 -14z m-288 -26 c0 -23 -2 -27 -13 -18 -7 6 -13 7 -13 3
0 -4 -6 -2 -13 4 -8 6 -17 8 -20 4 -4 -3 -7 -4 -7 -1 0 3 7 11 16 18 12 11 15
11 12 1 -2 -8 5 -15 15 -16 12 -2 17 1 13 10 -4 10 1 25 9 25 1 0 1 -13 1 -30z
m109 10 c-3 -5 -12 -10 -18 -10 -7 0 -6 4 3 10 19 12 23 12 15 0z"/>
<path d="M2807 7009 c7 -7 15 -10 18 -7 3 3 -2 9 -12 12 -14 6 -15 5 -6 -5z"/>
<path d="M5716 4392 c-3 -5 1 -9 9 -9 8 0 12 4 9 9 -3 4 -7 8 -9 8 -2 0 -6 -4
-9 -8z"/>
<path d="M5718 4353 c7 -3 16 -2 19 1 4 3 -2 6 -13 5 -11 0 -14 -3 -6 -6z"/>
<path d="M5645 4080 c-3 -5 -1 -10 4 -10 6 0 11 5 11 10 0 6 -2 10 -4 10 -3 0
-8 -4 -11 -10z"/>
<path d="M5640 4048 c0 -4 4 -8 9 -8 6 0 12 4 15 8 3 5 -1 9 -9 9 -8 0 -15 -4
-15 -9z"/>
<path d="M1980 2929 c0 -5 5 -7 10 -4 6 3 10 8 10 11 0 2 -4 4 -10 4 -5 0 -10
-5 -10 -11z"/>
<path d="M5626 2491 c-3 -5 0 -14 7 -19 10 -8 13 -6 14 9 2 19 -11 26 -21 10z"/>
<path d="M1626 2445 c-9 -26 -7 -32 5 -12 6 10 9 21 6 23 -2 3 -7 -2 -11 -11z"/>
<path d="M5618 2448 c-7 -17 15 -19 29 -3 4 4 3 5 -4 2 -6 -4 -13 -2 -15 5 -3
8 -6 6 -10 -4z"/>
<path d="M1587 2329 c7 -7 15 -10 18 -7 3 3 -2 9 -12 12 -14 6 -15 5 -6 -5z"/>
<path d="M5564 2298 c-3 -4 5 -5 17 -3 30 6 36 14 9 12 -12 -1 -24 -5 -26 -9z"/>
<path d="M1570 2196 c0 -2 7 -7 16 -10 8 -3 12 -2 9 4 -6 10 -25 14 -25 6z"/>
<path d="M1685 2030 c-4 -6 -11 -8 -16 -5 -5 3 -6 -1 -3 -9 6 -16 17 -20 43
-17 7 2 10 -2 7 -8 -4 -5 -2 -13 4 -16 8 -5 8 -11 1 -19 -11 -13 -9 -14 39
-18 15 -2 19 -7 14 -23 -4 -16 -3 -17 5 -5 10 13 15 8 12 -12 0 -4 7 -4 16 -1
12 5 14 3 8 -7 -5 -8 -4 -11 2 -7 6 4 18 0 29 -7 10 -8 25 -11 34 -8 12 5 13
3 3 -9 -8 -9 -9 -20 -3 -29 7 -10 10 -11 10 -2 0 10 4 10 23 0 12 -7 25 -17
29 -23 5 -6 8 -5 8 3 0 6 5 12 11 12 5 0 8 -4 4 -9 -3 -5 -1 -12 3 -15 5 -3 8
7 7 22 -1 22 -6 27 -29 27 -19 1 -35 10 -48 28 -16 22 -23 25 -34 16 -11 -9
-14 -9 -14 0 0 7 -4 10 -9 6 -6 -3 -15 4 -21 16 -7 11 -14 18 -17 16 -5 -6
-79 73 -76 83 3 12 -36 30 -42 20z m19 -21 c-3 -5 -10 -7 -15 -3 -5 3 -7 10
-3 15 3 5 10 7 15 3 5 -3 7 -10 3 -15z m60 -68 c-4 -3 -9 0 -11 7 -3 6 -10 9
-16 5 -7 -3 -9 -3 -5 2 4 4 2 15 -4 24 -7 9 0 5 15 -8 15 -14 24 -27 21 -30z
m161 -110 c-3 -2 -11 1 -18 7 -8 7 -18 8 -22 4 -5 -4 -5 -1 -1 5 5 10 11 10
26 1 11 -7 17 -14 15 -17z m45 5 c0 -2 -7 -7 -16 -10 -8 -3 -12 -2 -9 4 6 10
25 14 25 6z"/>
<path d="M1830 1860 c0 -5 5 -10 10 -10 6 0 10 5 10 10 0 6 -4 10 -10 10 -5 0
-10 -4 -10 -10z"/>
<path d="M2473 1485 c0 -8 4 -15 9 -15 4 0 8 4 8 9 0 6 -4 12 -8 15 -5 3 -9
-1 -9 -9z"/>
<path d="M2586 1417 c3 -10 9 -15 12 -12 3 3 0 11 -7 18 -10 9 -11 8 -5 -6z"/>
<path d="M2700 1350 c0 -5 5 -10 11 -10 5 0 7 5 4 10 -3 6 -8 10 -11 10 -2 0
-4 -4 -4 -10z"/>
<path d="M4264 935 c-9 -14 -14 -28 -11 -32 4 -3 12 7 19 22 l13 28 6 -24 c7
-23 7 -23 8 -2 2 33 -16 37 -35 8z"/>
<path d="M4210 889 c0 -5 5 -7 10 -4 6 3 10 8 10 11 0 2 -4 4 -10 4 -5 0 -10
-5 -10 -11z"/>
<path d="M4057 860 c9 -10 10 -17 2 -27 -7 -8 -8 -13 -1 -13 18 0 21 28 4 41
-14 11 -15 11 -5 -1z"/>
<path d="M4130 860 c-9 -6 -10 -10 -3 -10 6 0 15 5 18 10 8 12 4 12 -15 0z"/>
<path d="M4116 823 c-6 -14 -5 -15 5 -6 7 7 10 15 7 18 -3 3 -9 -2 -12 -12z"/>
</g>
</svg>
