# https://github.com/mikedh/trimesh
v -7.54310300 -40.00000000 -0.10000000
v -7.54310300 -40.00000000 0.00000000
v -7.54310300 40.00000000 -0.10000000
v -7.54310300 40.00000000 0.00000000
v 72.45689700 -40.00000000 -0.10000000
v 72.45689700 -40.00000000 0.00000000
v 72.45689700 40.00000000 -0.10000000
v 72.45689700 40.00000000 0.00000000
v 4.74397200 -0.86426200 0.00000000
v 5.69930800 -0.56874200 0.00000000
v 5.25602800 0.86426200 0.00000000
v 4.30069200 0.56874200 0.00000000
v 4.74397200 -0.86426200 0.38000000
v 5.69930800 -0.56874200 0.38000000
v 5.25602800 0.86426200 0.38000000
v 4.30069200 0.56874200 0.38000000
v 9.40023500 -0.67289000 0.00000000
v 10.39045100 -0.81243400 0.00000000
v 10.59976500 0.67289000 0.00000000
v 9.60954900 0.81243400 0.00000000
v 9.40023500 -0.67289000 0.38000000
v 10.39045100 -0.81243400 0.38000000
v 10.59976500 0.67289000 0.38000000
v 9.60954900 0.81243400 0.38000000
v 14.34218400 -0.61626100 0.00000000
v 15.31585000 -0.84423900 0.00000000
v 15.65781600 0.61626100 0.00000000
v 14.68415000 0.84423900 0.00000000
v 14.34218400 -0.61626100 0.76000000
v 15.31585000 -0.84423900 0.76000000
v 15.65781600 0.61626100 0.76000000
v 14.68415000 0.84423900 0.76000000
v 19.57737300 -0.79617000 0.00000000
v 20.57237700 -0.69633600 0.00000000
v 20.42262700 0.79617000 0.00000000
v 19.42762300 0.69633600 0.00000000
v 19.57737300 -0.79617000 0.76
v 20.57237700 -0.69633600 0.76
v 20.42262700 0.79617000 0.76
v 19.42762300 0.69633600 0.76
v 24.17798300 -0.36984800 0.00000000
v 25.02523800 -0.90103400 0.00000000
v 25.82201700 0.36984800 0.00000000
v 24.97476200 0.90103400 0.00000000
v 24.17798300 -0.36984800 0.38000000
v 25.02523800 -0.90103400 0.38000000
v 25.82201700 0.36984800 0.38000000
v 24.97476200 0.90103400 0.38000000
v 29.74397200 -0.86426200 0.00000000
v 30.69930800 -0.56874200 0.00000000
v 30.25602800 0.86426200 0.00000000
v 29.30069200 0.56874200 0.00000000
v 29.74397200 -0.86426200 0.38000000
v 30.69930800 -0.56874200 0.38000000
v 30.25602800 0.86426200 0.38000000
v 29.30069200 0.56874200 0.38000000
v 34.67572300 -0.84103800 0.00000000
v 35.65162100 -0.62280800 0.00000000
v 35.32427700 0.84103800 0.00000000
v 34.34837900 0.62280800 0.00000000
v 34.67572300 -0.84103800 0.76000000
v 35.65162100 -0.62280800 0.76000000
v 35.32427700 0.84103800 0.76000000
v 34.34837900 0.62280800 0.76000000
v 39.40023500 -0.67289000 0.00000000
v 40.39045100 -0.81243400 0.00000000
v 40.59976500 0.67289000 0.00000000
v 39.60954900 0.81243400 0.00000000
v 39.40023500 -0.67289000 0.76
v 40.39045100 -0.81243400 0.76
v 40.59976500 0.67289000 0.76
v 39.60954900 0.81243400 0.76
v 44.89388100 -0.89511900 0.00000000
v 45.78544900 -0.44223300 0.00000000
v 45.10611900 0.89511900 0.00000000
v 44.21455100 0.44223300 0.00000000
v 44.89388100 -0.89511900 0.38000000
v 45.78544900 -0.44223300 0.38000000
v 45.10611900 0.89511900 0.38000000
v 44.21455100 0.44223300 0.38000000
v 49.26262500 -0.51843800 0.00000000
v 50.19495200 -0.88005300 0.00000000
v 50.73737500 0.51843800 0.00000000
v 49.80504800 0.88005300 0.00000000
v 49.26262500 -0.51843800 0.38000000
v 50.19495200 -0.88005300 0.38000000
v 50.73737500 0.51843800 0.38000000
v 49.80504800 0.88005300 0.38000000
v 54.62587500 -0.82008000 0.00000000
v 55.61310200 -0.66076100 0.00000000
v 55.37412500 0.82008000 0.00000000
v 54.38689800 0.66076100 0.00000000
v 54.62587500 -0.82008000 0.76000000
v 55.61310200 -0.66076100 0.76000000
v 55.37412500 0.82008000 0.76000000
v 54.38689800 0.66076100 0.76000000
v 59.38689800 -0.66076100 0.00000000
v 60.37412500 -0.82008000 0.00000000
v 60.61310200 0.66076100 0.00000000
v 59.62587500 0.82008000 0.00000000
v 59.38689800 -0.66076100 0.76
v 60.37412500 -0.82008000 0.76
v 60.61310200 0.66076100 0.76
v 59.62587500 0.82008000 0.76
f 2 4 1
f 5 2 1
f 1 4 3
f 3 5 1
f 2 8 4
f 6 2 5
f 6 8 2
f 4 8 3
f 7 5 3
f 3 8 7
f 7 6 5
f 8 6 7
f 13 14 15
f 10 9 12
f 9 10 14
f 11 12 16
f 10 11 15
f 12 9 13
f 21 22 23
f 18 17 20
f 17 18 22
f 19 20 24
f 18 19 23
f 20 17 21
f 29 30 31
f 26 25 28
f 25 26 30
f 27 28 32
f 26 27 31
f 28 25 29
f 37 38 39
f 34 33 36
f 33 34 38
f 35 36 40
f 34 35 39
f 36 33 37
f 45 46 47
f 42 41 44
f 41 42 46
f 43 44 48
f 42 43 47
f 44 41 45
f 53 54 55
f 50 49 52
f 49 50 54
f 51 52 56
f 50 51 55
f 52 49 53
f 61 62 63
f 58 57 60
f 57 58 62
f 59 60 64
f 58 59 63
f 60 57 61
f 69 70 71
f 66 65 68
f 65 66 70
f 67 68 72
f 66 67 71
f 68 65 69
f 77 78 79
f 74 73 76
f 73 74 78
f 75 76 80
f 74 75 79
f 76 73 77
f 85 86 87
f 82 81 84
f 81 82 86
f 83 84 88
f 82 83 87
f 84 81 85
f 93 94 95
f 90 89 92
f 89 90 94
f 91 92 96
f 90 91 95
f 92 89 93
f 101 102 103
f 98 97 100
f 97 98 102
f 99 100 104
f 98 99 103
f 100 97 101
f 15 16 13
f 12 11 10
f 14 13 9
f 16 15 11
f 15 14 10
f 13 16 12
f 23 24 21
f 20 19 18
f 22 21 17
f 24 23 19
f 23 22 18
f 21 24 20
f 31 32 29
f 28 27 26
f 30 29 25
f 32 31 27
f 31 30 26
f 29 32 28
f 39 40 37
f 36 35 34
f 38 37 33
f 40 39 35
f 39 38 34
f 37 40 36
f 47 48 45
f 44 43 42
f 46 45 41
f 48 47 43
f 47 46 42
f 45 48 44
f 55 56 53
f 52 51 50
f 54 53 49
f 56 55 51
f 55 54 50
f 53 56 52
f 63 64 61
f 60 59 58
f 62 61 57
f 64 63 59
f 63 62 58
f 61 64 60
f 71 72 69
f 68 67 66
f 70 69 65
f 72 71 67
f 71 70 66
f 69 72 68
f 79 80 77
f 76 75 74
f 78 77 73
f 80 79 75
f 79 78 74
f 77 80 76
f 87 88 85
f 84 83 82
f 86 85 81
f 88 87 83
f 87 86 82
f 85 88 84
f 95 96 93
f 92 91 90
f 94 93 89
f 96 95 91
f 95 94 90
f 93 96 92
f 103 104 101
f 100 99 98
f 102 101 97
f 104 103 99
f 103 102 98
f 101 104 100
